<svg width="25" height="24" viewBox="0 0 25 24" fill="none" xmlns="http://www.w3.org/2000/svg">
<path d="M22.1618 0.984705C18.8661 3.83705 16.0778 6.55228 13.5251 10.0949C12.3993 11.6574 11.1474 13.4964 10.329 15.2328C9.86182 16.1535 9.01963 17.5921 8.73252 18.9753C7.16221 17.5144 5.47549 15.8562 3.74971 14.5574C2.51963 13.632 -1.02333 15.5187 0.418853 16.6038C3.00362 18.548 5.15323 20.9695 7.66729 23.0003C8.71885 23.8488 11.0493 22.0062 11.597 21.2331C13.3946 18.6863 13.6403 15.573 14.9505 12.7949C16.9509 8.54603 20.4985 5.0558 24.0013 2.02494C26.322 -0.139513 23.9251 -0.538732 22.1653 0.984705" fill="#E15113"/>
</svg>
